# xmcd CD database file
#
# Track frame offsets:
#	150
#	26189
#	39878
#	60292
#	83315
#	102949
#	125089
#	142116
#	156406
#	177627
#	197779
#	224266
#	243375
#	259876
#	285569
#
# Disc length: 4140 seconds
#
# Revision: 2
# Processed by: cddbd v1.5.2PL0 Copyright (c) Steve Scherf et al.
# Submitted via: CDex 1.51
#
DISCID=da102a0f
DTITLE=Chet Baker - Vol.08 - My Funny Valentine
DYEAR=1900
DGENRE=Jazz
TTITLE0=My Old Flame
TTITLE1=That Old Feeling
TTITLE2=Lullaby Of The Leaves
TTITLE3=Moolight In Vermont
TTITLE4=My Ideal 
TTITLE5=Lush Life
TTITLE6=There's A Small Hotel
TTITLE7=Dinah
TTITLE8=These Foolish Things
TTITLE9=How About You ¿
TTITLE10=I'll Remember April
TTITLE11=Summertime
TTITLE12=Heverything Happens To Me
TTITLE13=All The Things You Are
TTITLE14=Once In A While
EXTD=
EXTT0=
EXTT1=
EXTT2=
EXTT3=
EXTT4=
EXTT5=
EXTT6=
EXTT7=
EXTT8=
EXTT9=
EXTT10=
EXTT11=
EXTT12=
EXTT13=
EXTT14=
PLAYORDER=
